<svg width="168" height="42" viewBox="0 0 168 42" fill="none" xmlns="http://www.w3.org/2000/svg">
<path d="M16.5259 32.5284H12.8927V30.6589H22.0382V32.5284H18.4051V41.7509H16.4006V32.5284H16.5259ZM31.0585 41.7509H24.4186V30.6589H30.8079V32.5284H26.2978V35.2702H30.3068V37.1397H26.2978V40.0061H30.9332V41.7509H31.0585ZM40.7052 30.6589H42.9602L39.2018 36.018L43.0855 41.6263H40.8304L37.949 37.5136L35.0675 41.6263H32.8124L36.6962 36.018L32.9377 30.6589H35.1928L37.949 34.6471L40.7052 30.6589ZM54.4861 41.7509H52.4816V37.015H47.4703V41.7509H45.4659V30.6589H47.4703V35.1456H52.6069V30.6589H54.4861V41.7509ZM57.3676 36.2673C57.3676 34.6471 57.8687 33.2762 58.9962 32.1545C60.1238 31.0328 61.5019 30.5343 63.1305 30.5343C64.7592 30.5343 66.1373 31.0328 67.2648 32.1545C68.3923 33.2762 68.8935 34.6471 68.8935 36.2673C68.8935 37.8874 68.3923 39.2584 67.2648 40.38C66.1373 41.5017 64.7592 42.0002 63.1305 42.0002C61.5019 42.0002 60.1238 41.5017 58.9962 40.38C57.8687 39.2584 57.3676 37.8874 57.3676 36.2673ZM59.3721 36.2673C59.3721 37.3889 59.7479 38.2613 60.3743 39.0091C61.0007 39.7569 62.003 40.1308 63.0052 40.1308C64.1328 40.1308 65.0097 39.7569 65.7614 39.0091C66.3878 38.2613 66.7637 37.3889 66.7637 36.2673C66.7637 35.1456 66.3878 34.1486 65.6361 33.5254C64.8845 32.7776 64.0075 32.4038 63.0052 32.4038C61.8777 32.4038 61.0007 32.7776 60.3743 33.5254C59.7479 34.1486 59.3721 35.1456 59.3721 36.2673ZM79.9182 41.7509H78.039V32.5284H74.7817L74.5311 34.6471C74.4058 35.8934 74.2806 37.015 74.03 37.8874C73.7794 38.7598 73.6541 39.5076 73.4036 40.0061C73.153 40.5046 72.9025 41.0032 72.5266 41.2524C72.1508 41.5017 71.9002 41.7509 71.5244 41.7509C71.1485 41.8756 70.7727 41.8756 70.2715 41.7509V39.8815C70.5221 39.8815 70.6474 39.8815 70.898 39.8815C71.0232 39.8815 71.2738 39.6322 71.3991 39.383C71.6497 39.1337 71.7749 38.7598 71.9002 38.2613C72.2761 37.1397 72.5266 35.3949 72.7772 32.9023L72.9025 30.6589H79.9182V41.7509ZM82.7997 36.2673C82.7997 34.6471 83.3008 33.2762 84.4283 32.1545C85.5559 31.0328 86.934 30.5343 88.5626 30.5343C90.1913 30.5343 91.5694 31.0328 92.6969 32.1545C93.8245 33.2762 94.3256 34.6471 94.3256 36.2673C94.3256 37.8874 93.8245 39.2584 92.6969 40.38C91.5694 41.5017 90.1913 42.0002 88.5626 42.0002C86.934 42.0002 85.5559 41.5017 84.4283 40.38C83.3008 39.2584 82.7997 37.8874 82.7997 36.2673ZM84.9295 36.2673C84.9295 37.3889 85.3053 38.2613 85.9317 39.0091C86.5581 39.7569 87.5604 40.1308 88.5626 40.1308C89.6902 40.1308 90.5671 39.7569 91.3188 39.0091C91.9452 38.2613 92.3211 37.3889 92.3211 36.2673C92.3211 35.1456 91.9452 34.1486 91.1935 33.5254C90.4418 32.7776 89.5649 32.4038 88.5626 32.4038C87.4351 32.4038 86.5581 32.7776 85.9317 33.5254C85.18 34.1486 84.9295 35.1456 84.9295 36.2673ZM99.2115 41.7509H97.207V30.6589H103.471V32.5284H99.2115V41.7509ZM108.107 41.7509H106.102V30.6589H108.107V41.7509ZM110.988 28.7895C110.988 28.5403 111.113 28.291 111.239 28.0417C111.489 27.9171 111.74 27.7925 111.99 27.7925C112.241 27.7925 112.491 27.9171 112.742 28.0417C112.993 28.1664 112.993 28.4156 112.993 28.7895C112.993 29.1634 112.867 29.4127 112.742 29.5373C112.617 29.6619 112.366 29.7865 111.99 29.7865C111.74 29.7865 111.489 29.6619 111.239 29.5373C111.113 29.288 110.988 29.0388 110.988 28.7895ZM114.245 41.7509H112.241V30.6589H114.245V41.7509ZM113.619 28.7895C113.619 28.5403 113.744 28.291 113.869 28.0417C114.12 27.9171 114.371 27.7925 114.621 27.7925C114.872 27.7925 115.122 27.9171 115.373 28.0417C115.623 28.291 115.623 28.4156 115.623 28.7895C115.623 29.1634 115.498 29.4127 115.373 29.5373C115.248 29.7865 114.997 29.7865 114.621 29.7865C114.245 29.7865 113.995 29.6619 113.869 29.5373C113.744 29.288 113.619 29.0388 113.619 28.7895ZM129.905 39.2584L130.657 40.7539C130.281 41.1278 129.78 41.3771 129.154 41.6263C128.527 41.8756 127.776 42.0002 127.149 42.0002C125.395 42.0002 124.017 41.5017 123.015 40.38C122.013 39.383 121.386 38.0121 121.386 36.2673C121.386 34.6471 121.887 33.2762 122.89 32.1545C123.892 31.0328 125.27 30.5343 127.024 30.5343C128.402 30.5343 129.53 30.9082 130.407 31.656L129.53 33.1515C128.778 32.653 127.901 32.4038 127.024 32.4038C126.022 32.4038 125.145 32.7776 124.393 33.4008C123.767 34.1486 123.391 35.021 123.391 36.2673C123.391 37.3889 123.767 38.386 124.393 39.1337C125.145 39.8815 126.022 40.2554 127.149 40.2554C128.277 40.1308 129.154 39.8815 129.905 39.2584ZM142.183 41.7509H140.304V37.015H135.167V41.7509H133.163V30.6589H135.167V35.1456H140.304V30.6589H142.183V41.7509ZM153.083 30.6589H155.087L151.329 39.1337C150.953 40.0061 150.452 40.6293 150.076 41.1278C149.575 41.5017 149.074 41.7509 148.322 41.7509C147.57 41.7509 147.194 41.6263 146.818 41.2524L147.445 39.6322C147.695 39.7569 147.946 39.8815 148.322 39.8815C148.823 39.8815 149.199 39.6322 149.449 39.1337L149.575 38.7598L144.689 30.6589H146.944L150.577 36.8904L153.083 30.6589Z" fill="white"/>
<path d="M10.6447 11.715L21.4189 24.8011H14.5285L5.88405 13.9583V24.8011H0.496948V0.249141H5.88405V10.2195L14.1526 0.249141H20.7925L10.6447 11.715ZM120.516 5.35893H128.033V24.8011H133.42V5.35893H140.937V0.249141H120.391V5.35893H120.516ZM36.9538 14.9554L44.596 24.8011H38.0813L31.692 16.077H29.6875V24.8011H24.3004V0.249141H24.9268C26.0543 0.249141 27.3072 0.249141 28.6852 0.249141C30.0633 0.249141 31.1909 0.249141 32.0678 0.249141C39.5847 0.249141 41.2134 4.48653 41.2134 8.10077C41.2134 9.97021 40.7123 11.5904 39.71 12.8367C38.833 13.7091 37.9561 14.4569 36.9538 14.9554ZM30.3139 5.35893C30.0633 5.35893 29.9381 5.35893 29.6875 5.35893V10.9672H31.692C32.8195 10.9672 33.8218 10.718 34.5735 10.0948C35.1999 9.59632 35.5757 8.84855 35.5757 7.97614C35.5757 6.72985 35.1999 5.2343 31.8173 5.2343C31.692 5.2343 31.5667 5.2343 31.3162 5.2343C31.0656 5.35893 30.6898 5.35893 30.3139 5.35893ZM111.872 0.249141L122.27 24.8011H116.507L114.127 18.8189H104.982L102.601 24.8011H97.0889L107.362 0.249141H111.872ZM109.492 7.72689L106.986 13.7091H111.997L109.492 7.72689ZM167.497 12.5874C167.497 16.2017 166.244 19.3174 163.864 21.6853C161.483 24.0533 158.351 25.2996 154.718 25.2996C151.085 25.2996 147.953 24.1779 145.573 21.81C143.192 19.442 141.94 16.4509 141.94 12.7121C141.94 9.22244 143.192 6.10671 145.573 3.73876C147.953 1.3708 151.085 0.124512 154.718 0.124512C158.351 0.124512 161.483 1.24617 163.864 3.61413C166.244 5.73282 167.497 8.84855 167.497 12.5874ZM159.98 17.9465C161.358 16.4509 161.985 14.7061 161.985 12.4628C161.985 10.2195 161.358 8.47466 159.855 6.97911C158.477 5.60819 156.723 4.86042 154.718 4.86042C152.588 4.86042 150.96 5.60819 149.582 6.97911C148.204 8.35003 147.577 10.2195 147.577 12.4628C147.577 14.7061 148.204 16.4509 149.582 17.8218C150.96 19.3174 152.588 19.9405 154.718 19.9405C156.973 20.0652 158.602 19.442 159.98 17.9465ZM94.0821 0.249141L87.818 16.4509L81.3034 0.249141H75.5405L85.6882 24.8011H89.6972L99.5945 0.249141H94.0821Z" fill="white"/>
<path d="M71.1021 2.49432C69.5949 0.997728 67.5854 0.124716 65.4503 0.124716C63.3152 0.124716 61.3057 0.997728 59.7985 2.49432L59.4217 2.86847L58.9194 2.3696C57.4122 0.873012 55.4027 0 53.2676 0C51.1325 0 49.123 0.873012 47.6158 2.3696C46.1087 3.8662 45.2295 5.86165 45.2295 7.98182C45.2295 10.102 46.1087 12.0975 47.6158 13.594L58.5426 24.4443C58.7938 24.6938 59.045 24.8185 59.4217 24.8185C59.7985 24.8185 60.0497 24.6938 60.3009 24.4443L71.2277 13.594C72.7348 12.0975 73.614 10.102 73.614 7.98182C73.614 5.86165 72.7348 3.99091 71.1021 2.49432Z" fill="#00B5FF"/>
<mask id="mask0_68_365" style="mask-type:alpha" maskUnits="userSpaceOnUse" x="45" y="0" width="29" height="25">
<path d="M71.1021 2.49432C69.5949 0.997728 67.5854 0.124716 65.4503 0.124716C63.3152 0.124716 61.3057 0.997728 59.7985 2.49432L59.4217 2.86847L58.9194 2.3696C57.4122 0.873012 55.4027 0 53.2676 0C51.1325 0 49.123 0.873012 47.6158 2.3696C46.1087 3.8662 45.2295 5.86165 45.2295 7.98182C45.2295 10.102 46.1087 12.0975 47.6158 13.594L58.5426 24.4443C58.7938 24.6938 59.045 24.8185 59.4217 24.8185C59.7985 24.8185 60.0497 24.6938 60.3009 24.4443L71.2277 13.594C72.7348 12.0975 73.614 10.102 73.614 7.98182C73.614 5.86165 72.7348 3.99091 71.1021 2.49432Z" fill="#00B5FF"/>
</mask>
<g mask="url(#mask0_68_365)">
<rect x="44.2935" y="10.3228" width="30.0675" height="15.0844" fill="#FFBC00"/>
</g>
</svg>
