<svg width="12" height="12" viewBox="0 0 12 12" fill="none" xmlns="http://www.w3.org/2000/svg">
<path d="M11.0028 4.99994H3.41283L6.71283 1.70994C6.90113 1.52164 7.00692 1.26624 7.00692 0.999941C7.00692 0.73364 6.90113 0.478245 6.71283 0.289941C6.52452 0.101638 6.26913 -0.00415039 6.00283 -0.00415039C5.73652 -0.00415039 5.48113 0.101638 5.29283 0.289941L0.292826 5.28994C0.201785 5.38505 0.13042 5.49719 0.082826 5.61994C-0.017192 5.8634 -0.017192 6.13648 0.082826 6.37994C0.13042 6.50269 0.201785 6.61484 0.292826 6.70994L5.29283 11.7099C5.38579 11.8037 5.49639 11.8781 5.61825 11.9288C5.74011 11.9796 5.87081 12.0057 6.00283 12.0057C6.13484 12.0057 6.26554 11.9796 6.3874 11.9288C6.50926 11.8781 6.61986 11.8037 6.71283 11.7099C6.80655 11.617 6.88095 11.5064 6.93172 11.3845C6.98249 11.2627 7.00862 11.132 7.00862 10.9999C7.00862 10.8679 6.98249 10.7372 6.93172 10.6154C6.88095 10.4935 6.80655 10.3829 6.71283 10.2899L3.41283 6.99994H11.0028C11.268 6.99994 11.5224 6.89458 11.7099 6.70705C11.8975 6.51951 12.0028 6.26516 12.0028 5.99994C12.0028 5.73472 11.8975 5.48037 11.7099 5.29283C11.5224 5.1053 11.268 4.99994 11.0028 4.99994Z" fill="white"/>
</svg>
