<svg width="249" height="22" viewBox="0 0 249 22" fill="none" xmlns="http://www.w3.org/2000/svg">
<g clip-path="url(#clip0_28_609)">
<path d="M0 4.21627V3.69913C0 3.36491 0.131696 3.04438 0.366117 2.80806C0.600537 2.57173 0.918479 2.43896 1.25 2.43896H18.75C19.0815 2.43896 19.3995 2.57173 19.6339 2.80806C19.8683 3.04438 20 3.36491 20 3.69913V4.21627L10 10.5171L0 4.21627ZM10.3313 11.7946C10.2319 11.8571 10.1171 11.8902 10 11.8902C9.88288 11.8902 9.76811 11.8571 9.66875 11.7946L0 5.70231V16.3008C0 16.635 0.131696 16.9555 0.366117 17.1918C0.600537 17.4281 0.918479 17.5609 1.25 17.5609H18.75C19.0815 17.5609 19.3995 17.4281 19.6339 17.1918C19.8683 16.9555 20 16.635 20 16.3008V5.70231L10.3313 11.7946Z" fill="#9700FF"/>
</g>
<path d="M44.4 17L40.38 6.32H42L45.32 15.52L48.74 6.32H50.34L46.2 17H44.4ZM52.0827 4.42C51.8693 4.42 51.7627 4.31333 51.7627 4.1V2.54C51.7627 2.32667 51.8693 2.22 52.0827 2.22H53.2027C53.3093 2.22 53.3827 2.25333 53.4227 2.32C53.476 2.37333 53.5027 2.44667 53.5027 2.54V4.1C53.5027 4.31333 53.4027 4.42 53.2027 4.42H52.0827ZM51.8427 17V6.32H53.4227V17H51.8427ZM59.5316 17.12C58.6516 17.12 57.9249 16.9333 57.3516 16.56C56.7916 16.1733 56.3716 15.5867 56.0916 14.8C55.8249 14 55.6916 12.98 55.6916 11.74C55.6916 10.42 55.8249 9.35333 56.0916 8.54C56.3582 7.71333 56.7849 7.11333 57.3716 6.74C57.9582 6.36667 58.7449 6.18 59.7316 6.18C60.3316 6.18 60.9182 6.24667 61.4916 6.38C62.0649 6.51333 62.5716 6.66 63.0116 6.82V1.74H64.5916V17H63.3116L63.0116 15.92C62.8116 16.0933 62.5116 16.2733 62.1116 16.46C61.7249 16.6467 61.2982 16.8067 60.8316 16.94C60.3782 17.06 59.9449 17.12 59.5316 17.12ZM59.9916 15.82C60.6049 15.82 61.1582 15.7267 61.6516 15.54C62.1582 15.34 62.6116 15.1333 63.0116 14.92V7.94C62.5316 7.79333 62.0716 7.67333 61.6316 7.58C61.1916 7.47333 60.6982 7.42 60.1516 7.42C59.4716 7.42 58.9182 7.54667 58.4916 7.8C58.0649 8.05333 57.7516 8.49333 57.5516 9.12C57.3649 9.73333 57.2716 10.5867 57.2716 11.68C57.2716 12.6667 57.3582 13.4667 57.5316 14.08C57.7182 14.6933 58.0116 15.14 58.4116 15.42C58.8116 15.6867 59.3382 15.82 59.9916 15.82ZM71.2555 17.12C70.1355 17.12 69.2488 16.9533 68.5955 16.62C67.9555 16.2867 67.4955 15.72 67.2155 14.92C66.9355 14.12 66.7955 13.0267 66.7955 11.64C66.7955 10.2267 66.9355 9.12667 67.2155 8.34C67.5088 7.54 67.9821 6.98 68.6355 6.66C69.2888 6.34 70.1688 6.18 71.2755 6.18C72.2221 6.18 72.9888 6.28667 73.5755 6.5C74.1755 6.71333 74.6155 7.08 74.8955 7.6C75.1888 8.10667 75.3355 8.81333 75.3355 9.72C75.3355 10.3467 75.2088 10.8533 74.9555 11.24C74.7155 11.6133 74.3621 11.8867 73.8955 12.06C73.4421 12.22 72.9021 12.3 72.2755 12.3H68.3755C68.3888 13.1667 68.4821 13.8667 68.6555 14.4C68.8288 14.92 69.1421 15.3 69.5955 15.54C70.0621 15.7667 70.7421 15.88 71.6355 15.88H75.0755V16.84C74.4621 16.92 73.8621 16.9867 73.2755 17.04C72.6888 17.0933 72.0155 17.12 71.2555 17.12ZM68.3555 11.26H72.1555C72.7555 11.26 73.1955 11.1533 73.4755 10.94C73.7688 10.7133 73.9155 10.3133 73.9155 9.74C73.9155 9.12667 73.8221 8.65333 73.6355 8.32C73.4621 7.97333 73.1821 7.73333 72.7955 7.6C72.4221 7.45333 71.9155 7.38 71.2755 7.38C70.5288 7.38 69.9421 7.49333 69.5155 7.72C69.0888 7.93333 68.7888 8.32 68.6155 8.88C68.4421 9.44 68.3555 10.2333 68.3555 11.26ZM81.8358 17.12C81.0624 17.12 80.3824 17.04 79.7958 16.88C79.2224 16.72 78.7424 16.44 78.3558 16.04C77.9691 15.64 77.6824 15.0867 77.4958 14.38C77.3091 13.66 77.2158 12.7467 77.2158 11.64C77.2158 10.52 77.3091 9.60667 77.4958 8.9C77.6824 8.18 77.9691 7.62667 78.3558 7.24C78.7424 6.84 79.2224 6.56667 79.7958 6.42C80.3824 6.26 81.0624 6.18 81.8358 6.18C82.6091 6.18 83.2824 6.26 83.8558 6.42C84.4425 6.58 84.9291 6.86 85.3158 7.26C85.7024 7.64667 85.9891 8.2 86.1758 8.92C86.3758 9.62667 86.4758 10.5333 86.4758 11.64C86.4758 12.76 86.3758 13.68 86.1758 14.4C85.9891 15.1067 85.7024 15.66 85.3158 16.06C84.9424 16.4467 84.4624 16.72 83.8758 16.88C83.2891 17.04 82.6091 17.12 81.8358 17.12ZM81.8358 15.82C82.3291 15.82 82.7624 15.7733 83.1358 15.68C83.5224 15.5867 83.8424 15.4 84.0958 15.12C84.3491 14.84 84.5424 14.42 84.6758 13.86C84.8091 13.3 84.8758 12.56 84.8758 11.64C84.8758 10.7067 84.8091 9.96667 84.6758 9.42C84.5424 8.87333 84.3491 8.46 84.0958 8.18C83.8424 7.9 83.5224 7.71333 83.1358 7.62C82.7624 7.52667 82.3291 7.48 81.8358 7.48C81.3291 7.48 80.8891 7.52667 80.5158 7.62C80.1424 7.71333 79.8291 7.9 79.5758 8.18C79.3224 8.46 79.1291 8.87333 78.9958 9.42C78.8624 9.96667 78.7958 10.7067 78.7958 11.64C78.7958 12.56 78.8624 13.3 78.9958 13.86C79.1291 14.42 79.3224 14.84 79.5758 15.12C79.8291 15.4 80.1424 15.5867 80.5158 15.68C80.8891 15.7733 81.3291 15.82 81.8358 15.82ZM92.8188 17.12C91.6988 17.12 90.8121 16.9533 90.1587 16.62C89.5188 16.2867 89.0588 15.72 88.7788 14.92C88.4988 14.12 88.3588 13.0267 88.3588 11.64C88.3588 10.2267 88.4988 9.12667 88.7788 8.34C89.0721 7.54 89.5454 6.98 90.1988 6.66C90.8521 6.34 91.7321 6.18 92.8388 6.18C93.7854 6.18 94.5521 6.28667 95.1388 6.5C95.7388 6.71333 96.1788 7.08 96.4588 7.6C96.7521 8.10667 96.8988 8.81333 96.8988 9.72C96.8988 10.3467 96.7721 10.8533 96.5188 11.24C96.2788 11.6133 95.9254 11.8867 95.4588 12.06C95.0054 12.22 94.4654 12.3 93.8388 12.3H89.9388C89.9521 13.1667 90.0454 13.8667 90.2188 14.4C90.3921 14.92 90.7054 15.3 91.1588 15.54C91.6254 15.7667 92.3054 15.88 93.1988 15.88H96.6388V16.84C96.0254 16.92 95.4254 16.9867 94.8388 17.04C94.2521 17.0933 93.5788 17.12 92.8188 17.12ZM89.9188 11.26H93.7188C94.3188 11.26 94.7588 11.1533 95.0388 10.94C95.3321 10.7133 95.4788 10.3133 95.4788 9.74C95.4788 9.12667 95.3854 8.65333 95.1988 8.32C95.0254 7.97333 94.7454 7.73333 94.3588 7.6C93.9854 7.45333 93.4788 7.38 92.8388 7.38C92.0921 7.38 91.5054 7.49333 91.0788 7.72C90.6521 7.93333 90.3521 8.32 90.1788 8.88C90.0054 9.44 89.9188 10.2333 89.9188 11.26ZM102.619 17.12C101.739 17.12 101.012 16.9333 100.439 16.56C99.8791 16.1733 99.4591 15.5867 99.1791 14.8C98.9124 14 98.7791 12.98 98.7791 11.74C98.7791 10.42 98.9124 9.35333 99.1791 8.54C99.4457 7.71333 99.8724 7.11333 100.459 6.74C101.046 6.36667 101.832 6.18 102.819 6.18C103.419 6.18 104.006 6.24667 104.579 6.38C105.152 6.51333 105.659 6.66 106.099 6.82V1.74H107.679V17H106.399L106.099 15.92C105.899 16.0933 105.599 16.2733 105.199 16.46C104.812 16.6467 104.386 16.8067 103.919 16.94C103.466 17.06 103.032 17.12 102.619 17.12ZM103.079 15.82C103.692 15.82 104.246 15.7267 104.739 15.54C105.246 15.34 105.699 15.1333 106.099 14.92V7.94C105.619 7.79333 105.159 7.67333 104.719 7.58C104.279 7.47333 103.786 7.42 103.239 7.42C102.559 7.42 102.006 7.54667 101.579 7.8C101.152 8.05333 100.839 8.49333 100.639 9.12C100.452 9.73333 100.359 10.5867 100.359 11.68C100.359 12.6667 100.446 13.4667 100.619 14.08C100.806 14.6933 101.099 15.14 101.499 15.42C101.899 15.6867 102.426 15.82 103.079 15.82ZM110.503 4.42C110.29 4.42 110.183 4.31333 110.183 4.1V2.54C110.183 2.32667 110.29 2.22 110.503 2.22H111.623C111.73 2.22 111.803 2.25333 111.843 2.32C111.896 2.37333 111.923 2.44667 111.923 2.54V4.1C111.923 4.31333 111.823 4.42 111.623 4.42H110.503ZM110.263 17V6.32H111.843V17H110.263ZM118.032 17C117.339 17 116.765 16.8867 116.312 16.66C115.859 16.4333 115.525 16.0667 115.312 15.56C115.099 15.0533 114.999 14.38 115.012 13.54L115.072 7.62H113.372V6.6L115.092 6.32L115.352 3.34H116.572V6.32H119.652V7.62H116.572V13.54C116.572 14.0067 116.619 14.38 116.712 14.66C116.819 14.94 116.952 15.1533 117.112 15.3C117.285 15.4467 117.465 15.5533 117.652 15.62C117.839 15.6733 118.019 15.7067 118.192 15.72L119.492 15.84V17H118.032ZM125.676 17.12C124.902 17.12 124.222 17.04 123.636 16.88C123.062 16.72 122.582 16.44 122.196 16.04C121.809 15.64 121.522 15.0867 121.336 14.38C121.149 13.66 121.056 12.7467 121.056 11.64C121.056 10.52 121.149 9.60667 121.336 8.9C121.522 8.18 121.809 7.62667 122.196 7.24C122.582 6.84 123.062 6.56667 123.636 6.42C124.222 6.26 124.902 6.18 125.676 6.18C126.449 6.18 127.122 6.26 127.696 6.42C128.282 6.58 128.769 6.86 129.156 7.26C129.542 7.64667 129.829 8.2 130.016 8.92C130.216 9.62667 130.316 10.5333 130.316 11.64C130.316 12.76 130.216 13.68 130.016 14.4C129.829 15.1067 129.542 15.66 129.156 16.06C128.782 16.4467 128.302 16.72 127.716 16.88C127.129 17.04 126.449 17.12 125.676 17.12ZM125.676 15.82C126.169 15.82 126.602 15.7733 126.976 15.68C127.362 15.5867 127.682 15.4 127.936 15.12C128.189 14.84 128.382 14.42 128.516 13.86C128.649 13.3 128.716 12.56 128.716 11.64C128.716 10.7067 128.649 9.96667 128.516 9.42C128.382 8.87333 128.189 8.46 127.936 8.18C127.682 7.9 127.362 7.71333 126.976 7.62C126.602 7.52667 126.169 7.48 125.676 7.48C125.169 7.48 124.729 7.52667 124.356 7.62C123.982 7.71333 123.669 7.9 123.416 8.18C123.162 8.46 122.969 8.87333 122.836 9.42C122.702 9.96667 122.636 10.7067 122.636 11.64C122.636 12.56 122.702 13.3 122.836 13.86C122.969 14.42 123.162 14.84 123.416 15.12C123.669 15.4 123.982 15.5867 124.356 15.68C124.729 15.7733 125.169 15.82 125.676 15.82ZM132.579 17V6.32H133.779L134.159 8.18C134.639 7.60667 135.172 7.13333 135.759 6.76C136.359 6.38667 137.045 6.2 137.819 6.2C138.005 6.2 138.179 6.20667 138.339 6.22C138.512 6.23333 138.672 6.26 138.819 6.3V7.92C138.645 7.89333 138.459 7.87333 138.259 7.86C138.059 7.83333 137.859 7.82 137.659 7.82C137.165 7.82 136.725 7.88 136.339 8C135.952 8.12 135.585 8.3 135.239 8.54C134.892 8.78 134.532 9.07333 134.159 9.42V17H132.579ZM144.141 20.28C143.607 20.28 143.107 20.2 142.641 20.04C142.174 19.8933 141.767 19.66 141.421 19.34C141.074 19.02 140.801 18.6067 140.601 18.1C140.414 17.6067 140.321 17.02 140.321 16.34V9.9C140.321 9.63333 140.347 9.34 140.401 9.02C140.454 8.7 140.547 8.38 140.681 8.06C140.827 7.72667 141.041 7.42667 141.321 7.16C141.614 6.88 141.987 6.65333 142.441 6.48C142.894 6.30667 143.461 6.22 144.141 6.22H147.961C148.361 6.22 148.754 6.26 149.141 6.34C149.541 6.42 149.901 6.56667 150.221 6.78C150.541 6.99333 150.794 7.3 150.981 7.7C151.181 8.08667 151.281 8.59333 151.281 9.22V16.46H150.301L150.061 15.26C150.047 15.26 149.921 15.3333 149.681 15.48C149.441 15.6133 149.134 15.7733 148.761 15.96C148.387 16.1333 147.967 16.2933 147.501 16.44C147.047 16.5733 146.594 16.64 146.141 16.64C145.594 16.64 145.127 16.5267 144.741 16.3C144.367 16.06 144.081 15.7467 143.881 15.36C143.681 14.9733 143.581 14.5533 143.581 14.1V13.18C143.581 12.4067 143.821 11.8067 144.301 11.38C144.781 10.94 145.461 10.72 146.341 10.72H150.021V9.32C150.021 8.65333 149.834 8.18 149.461 7.9C149.101 7.62 148.601 7.48 147.961 7.48H144.141C143.647 7.48 143.207 7.55333 142.821 7.7C142.447 7.84667 142.147 8.1 141.921 8.46C141.694 8.82 141.581 9.32 141.581 9.96V16.2C141.581 16.9333 141.714 17.5 141.981 17.9C142.247 18.3133 142.574 18.6 142.961 18.76C143.361 18.92 143.754 19 144.141 19H150.521C151.481 19 152.174 18.76 152.601 18.28C153.041 17.8 153.261 17.1067 153.261 16.2V6.62C153.261 5.72667 153.027 5.00667 152.561 4.46C152.107 3.9 151.427 3.62 150.521 3.62H142.641V2.68C142.961 2.61333 143.427 2.56 144.041 2.52C144.667 2.46667 145.374 2.42667 146.161 2.4C146.947 2.37333 147.761 2.36 148.601 2.36H150.521C151.067 2.36 151.581 2.44667 152.061 2.62C152.541 2.78 152.967 3.03333 153.341 3.38C153.714 3.71333 154.001 4.14667 154.201 4.68C154.414 5.21333 154.521 5.86 154.521 6.62V16.2C154.521 17.0533 154.387 17.78 154.121 18.38C153.854 18.9933 153.434 19.46 152.861 19.78C152.287 20.1133 151.527 20.28 150.581 20.28H144.141ZM146.621 15.38C146.954 15.38 147.334 15.3267 147.761 15.22C148.201 15.1 148.621 14.96 149.021 14.8C149.434 14.64 149.767 14.48 150.021 14.32V11.58L146.621 11.76C146.381 11.7733 146.127 11.8133 145.861 11.88C145.594 11.9333 145.367 12.06 145.181 12.26C144.994 12.46 144.901 12.76 144.901 13.16V13.86C144.901 14.3267 145.047 14.7 145.341 14.98C145.647 15.2467 146.074 15.38 146.621 15.38ZM160.102 21.9C159.408 21.9 158.795 21.8 158.262 21.6C157.742 21.4133 157.328 21.12 157.022 20.72C156.728 20.3333 156.582 19.8467 156.582 19.26V18.78C156.582 18.1667 156.748 17.6533 157.082 17.24C157.428 16.8267 157.862 16.52 158.382 16.32C158.902 16.1067 159.435 16 159.982 16L160.382 16.64C159.982 16.64 159.608 16.7067 159.262 16.84C158.915 16.96 158.628 17.16 158.402 17.44C158.188 17.72 158.082 18.08 158.082 18.52V18.96C158.082 19.6 158.295 20.0533 158.722 20.32C159.148 20.6 159.728 20.74 160.462 20.74H162.942C163.742 20.74 164.368 20.5867 164.822 20.28C165.288 19.9733 165.522 19.4933 165.522 18.84V18.44C165.522 18.0667 165.448 17.7467 165.302 17.48C165.155 17.2133 164.908 17.0067 164.562 16.86C164.228 16.7133 163.755 16.64 163.142 16.64H159.922C159.095 16.64 158.448 16.4667 157.982 16.12C157.528 15.76 157.302 15.3 157.302 14.74C157.302 14.2067 157.455 13.7867 157.762 13.48C158.082 13.1733 158.528 12.96 159.102 12.84C158.608 12.64 158.222 12.3733 157.942 12.04C157.662 11.6933 157.468 11.3267 157.362 10.94C157.255 10.54 157.202 10.14 157.202 9.74C157.202 8.91333 157.368 8.24667 157.702 7.74C158.035 7.23333 158.508 6.86667 159.122 6.64C159.748 6.41333 160.482 6.3 161.322 6.3H167.022V7.2L164.622 7.4C164.795 7.52 164.988 7.68 165.202 7.88C165.415 8.06667 165.595 8.34 165.742 8.7C165.902 9.04667 165.982 9.52667 165.982 10.14C165.982 10.6867 165.862 11.2067 165.622 11.7C165.395 12.1933 165.008 12.6 164.462 12.92C163.915 13.2267 163.162 13.38 162.202 13.38H160.502C159.942 13.38 159.495 13.4667 159.162 13.64C158.842 13.8 158.682 14.0933 158.682 14.52C158.682 14.84 158.802 15.0667 159.042 15.2C159.282 15.3333 159.535 15.4 159.802 15.4H163.342C164.168 15.4 164.848 15.5067 165.382 15.72C165.928 15.9333 166.335 16.26 166.602 16.7C166.882 17.1267 167.022 17.6733 167.022 18.34V18.78C167.022 19.7533 166.688 20.5133 166.022 21.06C165.368 21.62 164.388 21.9 163.082 21.9H160.102ZM160.842 12.16H162.042C162.722 12.16 163.235 12.06 163.582 11.86C163.942 11.6467 164.188 11.3733 164.322 11.04C164.455 10.7067 164.522 10.3467 164.522 9.96C164.522 9.36 164.422 8.88667 164.222 8.54C164.035 8.18 163.768 7.92667 163.422 7.78C163.075 7.62 162.675 7.54 162.222 7.54H161.082C160.322 7.54 159.722 7.71333 159.282 8.06C158.855 8.39333 158.642 8.98 158.642 9.82C158.642 10.6467 158.835 11.2467 159.222 11.62C159.622 11.98 160.162 12.16 160.842 12.16ZM168.605 17V6.32H169.845L170.185 7.5C170.718 7.12667 171.312 6.80667 171.965 6.54C172.632 6.27333 173.372 6.14 174.185 6.14C174.852 6.14 175.418 6.29333 175.885 6.6C176.365 6.89333 176.725 7.26667 176.965 7.72C177.298 7.48 177.698 7.24 178.165 7C178.645 6.76 179.152 6.56 179.685 6.4C180.232 6.22667 180.758 6.14 181.265 6.14C182.038 6.14 182.672 6.30667 183.165 6.64C183.658 6.96 184.018 7.4 184.245 7.96C184.485 8.50667 184.605 9.12 184.605 9.8V17H183.025V9.92C183.025 9.46667 182.932 9.06667 182.745 8.72C182.572 8.36 182.318 8.08 181.985 7.88C181.652 7.68 181.245 7.58 180.765 7.58C180.165 7.58 179.552 7.69333 178.925 7.92C178.298 8.14667 177.718 8.42 177.185 8.74C177.252 8.94 177.298 9.14 177.325 9.34C177.365 9.52667 177.385 9.72667 177.385 9.94V17H175.805V9.92C175.805 9.46667 175.712 9.06667 175.525 8.72C175.352 8.36 175.098 8.08 174.765 7.88C174.445 7.68 174.045 7.58 173.565 7.58C173.125 7.58 172.712 7.62667 172.325 7.72C171.952 7.8 171.592 7.92 171.245 8.08C170.912 8.22667 170.558 8.40667 170.185 8.62V17H168.605ZM189.25 17.12C188.463 17.12 187.817 16.8867 187.31 16.42C186.803 15.9533 186.55 15.2933 186.55 14.44V13.68C186.55 12.84 186.823 12.16 187.37 11.64C187.93 11.12 188.77 10.86 189.89 10.86H193.51V9.54C193.51 9.1 193.43 8.72667 193.27 8.42C193.123 8.1 192.85 7.85333 192.45 7.68C192.063 7.50667 191.497 7.42 190.75 7.42H187.43V6.48C187.897 6.4 188.437 6.32667 189.05 6.26C189.677 6.19333 190.41 6.16 191.25 6.16C192.117 6.14667 192.837 6.25333 193.41 6.48C193.983 6.70667 194.403 7.06667 194.67 7.56C194.95 8.04 195.09 8.67333 195.09 9.46V17H193.87L193.57 15.78C193.517 15.8333 193.35 15.9267 193.07 16.06C192.803 16.1933 192.457 16.3467 192.03 16.52C191.617 16.68 191.163 16.82 190.67 16.94C190.19 17.06 189.717 17.12 189.25 17.12ZM189.91 15.94C190.15 15.9533 190.423 15.9267 190.73 15.86C191.037 15.7933 191.35 15.72 191.67 15.64C191.99 15.5467 192.283 15.4533 192.55 15.36C192.83 15.2667 193.057 15.1867 193.23 15.12C193.403 15.0533 193.497 15.02 193.51 15.02V11.66L190.25 11.8C189.49 11.8267 188.943 12.0133 188.61 12.36C188.29 12.7067 188.13 13.1533 188.13 13.7V14.18C188.13 14.6067 188.217 14.9533 188.39 15.22C188.577 15.4733 188.803 15.6533 189.07 15.76C189.35 15.8667 189.63 15.9267 189.91 15.94ZM197.908 4.42C197.695 4.42 197.588 4.31333 197.588 4.1V2.54C197.588 2.32667 197.695 2.22 197.908 2.22H199.028C199.135 2.22 199.208 2.25333 199.248 2.32C199.302 2.37333 199.328 2.44667 199.328 2.54V4.1C199.328 4.31333 199.228 4.42 199.028 4.42H197.908ZM197.668 17V6.32H199.248V17H197.668ZM204.697 17.02C204.084 17.02 203.571 16.9133 203.157 16.7C202.744 16.4733 202.431 16.1133 202.217 15.62C202.004 15.1133 201.897 14.4333 201.897 13.58V1.74H203.477V13.38C203.477 14.02 203.537 14.5067 203.657 14.84C203.777 15.16 203.951 15.3867 204.177 15.52C204.404 15.64 204.671 15.72 204.977 15.76L206.057 15.88V17.02H204.697ZM207.416 17.02C207.203 17.02 207.096 16.9133 207.096 16.7V15.1C207.096 14.8867 207.203 14.78 207.416 14.78H208.296C208.51 14.78 208.616 14.8867 208.616 15.1V16.7C208.616 16.8067 208.583 16.8867 208.516 16.94C208.463 16.9933 208.39 17.02 208.296 17.02H207.416ZM214.86 17.12C214.26 17.12 213.7 17.04 213.18 16.88C212.66 16.72 212.207 16.44 211.82 16.04C211.433 15.64 211.133 15.0867 210.92 14.38C210.707 13.6733 210.6 12.7733 210.6 11.68C210.6 10.5733 210.7 9.66667 210.9 8.96C211.1 8.24 211.387 7.68 211.76 7.28C212.133 6.88 212.587 6.6 213.12 6.44C213.653 6.28 214.247 6.2 214.9 6.2C215.433 6.2 216.013 6.22667 216.64 6.28C217.267 6.32 217.867 6.38667 218.44 6.48V7.42H215.32C214.64 7.42 214.067 7.53333 213.6 7.76C213.133 7.98667 212.78 8.41333 212.54 9.04C212.3 9.65333 212.18 10.5467 212.18 11.72C212.18 12.8533 212.307 13.72 212.56 14.32C212.813 14.92 213.173 15.3333 213.64 15.56C214.107 15.7733 214.673 15.88 215.34 15.88H218.6V16.8C218.293 16.8533 217.933 16.9067 217.52 16.96C217.12 17.0133 216.693 17.0533 216.24 17.08C215.787 17.1067 215.327 17.12 214.86 17.12ZM224.625 17.12C223.852 17.12 223.172 17.04 222.585 16.88C222.012 16.72 221.532 16.44 221.145 16.04C220.758 15.64 220.472 15.0867 220.285 14.38C220.098 13.66 220.005 12.7467 220.005 11.64C220.005 10.52 220.098 9.60667 220.285 8.9C220.472 8.18 220.758 7.62667 221.145 7.24C221.532 6.84 222.012 6.56667 222.585 6.42C223.172 6.26 223.852 6.18 224.625 6.18C225.398 6.18 226.072 6.26 226.645 6.42C227.232 6.58 227.718 6.86 228.105 7.26C228.492 7.64667 228.778 8.2 228.965 8.92C229.165 9.62667 229.265 10.5333 229.265 11.64C229.265 12.76 229.165 13.68 228.965 14.4C228.778 15.1067 228.492 15.66 228.105 16.06C227.732 16.4467 227.252 16.72 226.665 16.88C226.078 17.04 225.398 17.12 224.625 17.12ZM224.625 15.82C225.118 15.82 225.552 15.7733 225.925 15.68C226.312 15.5867 226.632 15.4 226.885 15.12C227.138 14.84 227.332 14.42 227.465 13.86C227.598 13.3 227.665 12.56 227.665 11.64C227.665 10.7067 227.598 9.96667 227.465 9.42C227.332 8.87333 227.138 8.46 226.885 8.18C226.632 7.9 226.312 7.71333 225.925 7.62C225.552 7.52667 225.118 7.48 224.625 7.48C224.118 7.48 223.678 7.52667 223.305 7.62C222.932 7.71333 222.618 7.9 222.365 8.18C222.112 8.46 221.918 8.87333 221.785 9.42C221.652 9.96667 221.585 10.7067 221.585 11.64C221.585 12.56 221.652 13.3 221.785 13.86C221.918 14.42 222.112 14.84 222.365 15.12C222.618 15.4 222.932 15.5867 223.305 15.68C223.678 15.7733 224.118 15.82 224.625 15.82ZM231.528 17V6.32H232.768L233.108 7.5C233.641 7.12667 234.234 6.80667 234.888 6.54C235.554 6.27333 236.294 6.14 237.108 6.14C237.774 6.14 238.341 6.29333 238.808 6.6C239.288 6.89333 239.648 7.26667 239.888 7.72C240.221 7.48 240.621 7.24 241.088 7C241.568 6.76 242.074 6.56 242.608 6.4C243.154 6.22667 243.681 6.14 244.188 6.14C244.961 6.14 245.594 6.30667 246.088 6.64C246.581 6.96 246.941 7.4 247.168 7.96C247.408 8.50667 247.528 9.12 247.528 9.8V17H245.948V9.92C245.948 9.46667 245.854 9.06667 245.668 8.72C245.494 8.36 245.241 8.08 244.908 7.88C244.574 7.68 244.168 7.58 243.688 7.58C243.088 7.58 242.474 7.69333 241.848 7.92C241.221 8.14667 240.641 8.42 240.108 8.74C240.174 8.94 240.221 9.14 240.248 9.34C240.288 9.52667 240.308 9.72667 240.308 9.94V17H238.728V9.92C238.728 9.46667 238.634 9.06667 238.448 8.72C238.274 8.36 238.021 8.08 237.688 7.88C237.368 7.68 236.968 7.58 236.488 7.58C236.048 7.58 235.634 7.62667 235.248 7.72C234.874 7.8 234.514 7.92 234.168 8.08C233.834 8.22667 233.481 8.40667 233.108 8.62V17H231.528Z" fill="white"/>
<defs>
<clipPath id="clip0_28_609">
<rect width="20" height="15.122" fill="white" transform="translate(0 2.43896)"/>
</clipPath>
</defs>
</svg>
