<svg width="337" height="20" viewBox="0 0 337 20" fill="none" xmlns="http://www.w3.org/2000/svg">
<path d="M10 1.86987C8.23249 1.87181 6.53795 2.55768 5.28814 3.77701C4.03833 4.99634 3.33531 6.64955 3.33333 8.37394C3.33333 11.0203 5.3025 13.2178 7.38833 15.5439C8.04833 16.2804 8.73166 17.0422 9.34 17.813C9.41784 17.9115 9.51783 17.9913 9.63225 18.0462C9.74667 18.1011 9.87248 18.1296 10 18.1296C10.1275 18.1296 10.2533 18.1011 10.3677 18.0462C10.4822 17.9913 10.5821 17.9115 10.66 17.813C11.2683 17.0422 11.9517 16.2804 12.6117 15.5439C14.6975 13.2178 16.6667 11.0203 16.6667 8.37394C16.6647 6.64955 15.9617 4.99634 14.7118 3.77701C13.462 2.55768 11.7675 1.87181 10 1.86987ZM10 10.813C9.50554 10.813 9.02219 10.6699 8.61107 10.4019C8.19995 10.1339 7.87952 9.75299 7.6903 9.30731C7.50108 8.86164 7.45157 8.37123 7.54803 7.89811C7.64449 7.42498 7.8826 6.99039 8.23223 6.64929C8.58186 6.30818 9.02732 6.07589 9.51227 5.98178C9.99722 5.88767 10.4999 5.93597 10.9567 6.12057C11.4135 6.30518 11.804 6.61779 12.0787 7.01889C12.3534 7.41998 12.5 7.89154 12.5 8.37394C12.5 9.02081 12.2366 9.64118 11.7678 10.0986C11.2989 10.556 10.663 10.813 10 10.813Z" fill="#9700FF"/>
<path d="M41.54 17V2.28H47.36C48.2533 2.28 49.0067 2.44667 49.62 2.78C50.2333 3.1 50.7267 3.57333 51.1 4.2C51.4867 4.82667 51.7667 5.6 51.94 6.52C52.1133 7.42667 52.2 8.46667 52.2 9.64C52.2 11.1867 52.02 12.5067 51.66 13.6C51.3 14.6933 50.76 15.5333 50.04 16.12C49.32 16.7067 48.4267 17 47.36 17H41.54ZM43.14 15.58H47.24C48.0267 15.58 48.6667 15.34 49.16 14.86C49.6533 14.3667 50.02 13.68 50.26 12.8C50.5 11.9067 50.62 10.8533 50.62 9.64C50.62 8.54667 50.5533 7.62667 50.42 6.88C50.2867 6.12 50.08 5.50667 49.8 5.04C49.5333 4.57333 49.1867 4.24 48.76 4.04C48.3333 3.82667 47.8267 3.72 47.24 3.72H43.14V15.58ZM58.3836 17.12C57.2636 17.12 56.3769 16.9533 55.7236 16.62C55.0836 16.2867 54.6236 15.72 54.3436 14.92C54.0636 14.12 53.9236 13.0267 53.9236 11.64C53.9236 10.2267 54.0636 9.12667 54.3436 8.34C54.6369 7.54 55.1103 6.98 55.7636 6.66C56.4169 6.34 57.2969 6.18 58.4036 6.18C59.3503 6.18 60.1169 6.28667 60.7036 6.5C61.3036 6.71333 61.7436 7.08 62.0236 7.6C62.3169 8.10667 62.4636 8.81333 62.4636 9.72C62.4636 10.3467 62.3369 10.8533 62.0836 11.24C61.8436 11.6133 61.4903 11.8867 61.0236 12.06C60.5703 12.22 60.0303 12.3 59.4036 12.3H55.5036C55.5169 13.1667 55.6103 13.8667 55.7836 14.4C55.9569 14.92 56.2703 15.3 56.7236 15.54C57.1903 15.7667 57.8703 15.88 58.7636 15.88H62.2036V16.84C61.5903 16.92 60.9903 16.9867 60.4036 17.04C59.8169 17.0933 59.1436 17.12 58.3836 17.12ZM55.4836 11.26H59.2836C59.8836 11.26 60.3236 11.1533 60.6036 10.94C60.8969 10.7133 61.0436 10.3133 61.0436 9.74C61.0436 9.12667 60.9503 8.65333 60.7636 8.32C60.5903 7.97333 60.3103 7.73333 59.9236 7.6C59.5503 7.45333 59.0436 7.38 58.4036 7.38C57.6569 7.38 57.0703 7.49333 56.6436 7.72C56.2169 7.93333 55.9169 8.32 55.7436 8.88C55.5703 9.44 55.4836 10.2333 55.4836 11.26ZM65.3039 17V7.62H63.6639V6.6L65.3039 6.32V5.1C65.3039 4.34 65.3972 3.70667 65.5839 3.2C65.7706 2.68 66.0839 2.28667 66.5239 2.02C66.9639 1.75333 67.5772 1.62 68.3639 1.62C68.8306 1.62 69.2239 1.64667 69.5439 1.7C69.8772 1.74 70.1706 1.78 70.4239 1.82V2.94H68.6439C68.1639 2.94 67.7972 3.02 67.5439 3.18C67.2906 3.32667 67.1172 3.56 67.0239 3.88C66.9306 4.18667 66.8839 4.56667 66.8839 5.02V6.32H70.2039V7.62H66.8839V17H65.3039ZM75.7672 17.12C74.6472 17.12 73.7605 16.9533 73.1072 16.62C72.4672 16.2867 72.0072 15.72 71.7272 14.92C71.4472 14.12 71.3072 13.0267 71.3072 11.64C71.3072 10.2267 71.4472 9.12667 71.7272 8.34C72.0205 7.54 72.4939 6.98 73.1472 6.66C73.8005 6.34 74.6805 6.18 75.7872 6.18C76.7339 6.18 77.5005 6.28667 78.0872 6.5C78.6872 6.71333 79.1272 7.08 79.4072 7.6C79.7005 8.10667 79.8472 8.81333 79.8472 9.72C79.8472 10.3467 79.7205 10.8533 79.4672 11.24C79.2272 11.6133 78.8739 11.8867 78.4072 12.06C77.9539 12.22 77.4139 12.3 76.7872 12.3H72.8872C72.9005 13.1667 72.9939 13.8667 73.1672 14.4C73.3405 14.92 73.6539 15.3 74.1072 15.54C74.5739 15.7667 75.2539 15.88 76.1472 15.88H79.5872V16.84C78.9739 16.92 78.3739 16.9867 77.7872 17.04C77.2005 17.0933 76.5272 17.12 75.7672 17.12ZM72.8672 11.26H76.6672C77.2672 11.26 77.7072 11.1533 77.9872 10.94C78.2805 10.7133 78.4272 10.3133 78.4272 9.74C78.4272 9.12667 78.3339 8.65333 78.1472 8.32C77.9739 7.97333 77.6939 7.73333 77.3072 7.6C76.9339 7.45333 76.4272 7.38 75.7872 7.38C75.0405 7.38 74.4539 7.49333 74.0272 7.72C73.6005 7.93333 73.3005 8.32 73.1272 8.88C72.9539 9.44 72.8672 10.2333 72.8672 11.26ZM82.1075 17V6.32H83.3475L83.6875 7.5C84.1942 7.14 84.7875 6.82667 85.4675 6.56C86.1475 6.28 86.8542 6.14 87.5875 6.14C88.3742 6.14 89.0075 6.30667 89.4875 6.64C89.9675 6.97333 90.3208 7.41333 90.5475 7.96C90.7742 8.50667 90.8875 9.1 90.8875 9.74V17H89.3075V9.92C89.3075 9.46667 89.2142 9.06667 89.0275 8.72C88.8542 8.36 88.6008 8.08 88.2675 7.88C87.9475 7.68 87.5475 7.58 87.0675 7.58C86.6275 7.58 86.2142 7.62667 85.8275 7.72C85.4542 7.8 85.0942 7.92 84.7475 8.08C84.4142 8.22667 84.0608 8.40667 83.6875 8.62V17H82.1075ZM97.1453 17.12C96.8786 17.12 96.552 17.1133 96.1653 17.1C95.7786 17.0867 95.372 17.0667 94.9453 17.04C94.532 17.0133 94.152 16.9867 93.8053 16.96C93.472 16.92 93.212 16.88 93.0253 16.84V15.88H97.4053C97.8453 15.88 98.2253 15.8467 98.5453 15.78C98.8653 15.7133 99.112 15.5667 99.2853 15.34C99.472 15.1133 99.5653 14.7733 99.5653 14.32V13.84C99.5653 13.3733 99.412 13.0133 99.1053 12.76C98.7986 12.4933 98.3053 12.36 97.6253 12.36H96.1253C95.4986 12.36 94.9386 12.28 94.4453 12.12C93.9653 11.96 93.592 11.6867 93.3253 11.3C93.0586 10.9133 92.9253 10.38 92.9253 9.7V9.14C92.9253 8.47333 93.052 7.92667 93.3053 7.5C93.572 7.07333 93.9786 6.75333 94.5253 6.54C95.0853 6.32667 95.8053 6.22 96.6853 6.22C97.0586 6.22 97.4853 6.23333 97.9653 6.26C98.4586 6.28667 98.9386 6.32667 99.4053 6.38C99.872 6.42 100.252 6.46667 100.545 6.52V7.48H96.4253C95.7453 7.48 95.2186 7.59333 94.8453 7.82C94.4853 8.04667 94.3053 8.48667 94.3053 9.14V9.58C94.3053 9.99333 94.392 10.3067 94.5653 10.52C94.7386 10.72 94.9786 10.8533 95.2853 10.92C95.6053 10.9867 95.972 11.02 96.3853 11.02H97.9053C98.8786 11.02 99.632 11.2467 100.165 11.7C100.699 12.1533 100.965 12.8067 100.965 13.66V14.4C100.965 15.12 100.799 15.68 100.465 16.08C100.145 16.4667 99.6986 16.74 99.1253 16.9C98.5653 17.0467 97.9053 17.12 97.1453 17.12ZM107.145 17.12C106.025 17.12 105.139 16.9533 104.485 16.62C103.845 16.2867 103.385 15.72 103.105 14.92C102.825 14.12 102.685 13.0267 102.685 11.64C102.685 10.2267 102.825 9.12667 103.105 8.34C103.399 7.54 103.872 6.98 104.525 6.66C105.179 6.34 106.059 6.18 107.165 6.18C108.112 6.18 108.879 6.28667 109.465 6.5C110.065 6.71333 110.505 7.08 110.785 7.6C111.079 8.10667 111.225 8.81333 111.225 9.72C111.225 10.3467 111.099 10.8533 110.845 11.24C110.605 11.6133 110.252 11.8867 109.785 12.06C109.332 12.22 108.792 12.3 108.165 12.3H104.265C104.279 13.1667 104.372 13.8667 104.545 14.4C104.719 14.92 105.032 15.3 105.485 15.54C105.952 15.7667 106.632 15.88 107.525 15.88H110.965V16.84C110.352 16.92 109.752 16.9867 109.165 17.04C108.579 17.0933 107.905 17.12 107.145 17.12ZM104.245 11.26H108.045C108.645 11.26 109.085 11.1533 109.365 10.94C109.659 10.7133 109.805 10.3133 109.805 9.74C109.805 9.12667 109.712 8.65333 109.525 8.32C109.352 7.97333 109.072 7.73333 108.685 7.6C108.312 7.45333 107.805 7.38 107.165 7.38C106.419 7.38 105.832 7.49333 105.405 7.72C104.979 7.93333 104.679 8.32 104.505 8.88C104.332 9.44 104.245 10.2333 104.245 11.26ZM118.496 17V2.28H124.356C124.783 2.28 125.216 2.34 125.656 2.46C126.11 2.56667 126.53 2.78667 126.916 3.12C127.303 3.44 127.61 3.91333 127.836 4.54C128.076 5.15333 128.196 5.96667 128.196 6.98C128.196 8.02 128.07 8.86 127.816 9.5C127.576 10.1267 127.256 10.6133 126.856 10.96C126.47 11.2933 126.05 11.52 125.596 11.64C125.143 11.76 124.703 11.82 124.276 11.82C124.076 11.82 123.783 11.8133 123.396 11.8C123.01 11.7867 122.596 11.7733 122.156 11.76C121.73 11.7333 121.33 11.7067 120.956 11.68C120.583 11.6533 120.296 11.6333 120.096 11.62V17H118.496ZM120.096 10.4H124.076C124.543 10.4 124.97 10.3 125.356 10.1C125.743 9.9 126.043 9.55333 126.256 9.06C126.483 8.56667 126.596 7.88 126.596 7C126.596 6.13333 126.483 5.46667 126.256 5C126.043 4.52 125.756 4.18667 125.396 4C125.036 3.81333 124.643 3.72 124.216 3.72H120.096V10.4ZM130.147 17V1.74H131.727V7.5C132.22 7.14 132.807 6.82667 133.487 6.56C134.18 6.28 134.9 6.14 135.647 6.14C136.393 6.14 137.007 6.3 137.487 6.62C137.98 6.94 138.34 7.37333 138.567 7.92C138.807 8.46667 138.927 9.07333 138.927 9.74V17H137.347V9.9C137.347 9.44667 137.253 9.04667 137.067 8.7C136.893 8.35333 136.64 8.08 136.307 7.88C135.973 7.68 135.573 7.58 135.107 7.58C134.667 7.58 134.26 7.62667 133.887 7.72C133.513 7.8 133.153 7.92 132.807 8.08C132.46 8.22667 132.1 8.40667 131.727 8.62V17H130.147ZM143.584 17.12C142.798 17.12 142.151 16.8867 141.644 16.42C141.138 15.9533 140.884 15.2933 140.884 14.44V13.68C140.884 12.84 141.158 12.16 141.704 11.64C142.264 11.12 143.104 10.86 144.224 10.86H147.844V9.54C147.844 9.1 147.764 8.72667 147.604 8.42C147.458 8.1 147.184 7.85333 146.784 7.68C146.398 7.50667 145.831 7.42 145.084 7.42H141.764V6.48C142.231 6.4 142.771 6.32667 143.384 6.26C144.011 6.19333 144.744 6.16 145.584 6.16C146.451 6.14667 147.171 6.25333 147.744 6.48C148.318 6.70667 148.738 7.06667 149.004 7.56C149.284 8.04 149.424 8.67333 149.424 9.46V17H148.204L147.904 15.78C147.851 15.8333 147.684 15.9267 147.404 16.06C147.138 16.1933 146.791 16.3467 146.364 16.52C145.951 16.68 145.498 16.82 145.004 16.94C144.524 17.06 144.051 17.12 143.584 17.12ZM144.244 15.94C144.484 15.9533 144.758 15.9267 145.064 15.86C145.371 15.7933 145.684 15.72 146.004 15.64C146.324 15.5467 146.618 15.4533 146.884 15.36C147.164 15.2667 147.391 15.1867 147.564 15.12C147.738 15.0533 147.831 15.02 147.844 15.02V11.66L144.584 11.8C143.824 11.8267 143.278 12.0133 142.944 12.36C142.624 12.7067 142.464 13.1533 142.464 13.7V14.18C142.464 14.6067 142.551 14.9533 142.724 15.22C142.911 15.4733 143.138 15.6533 143.404 15.76C143.684 15.8667 143.964 15.9267 144.244 15.94ZM155.683 17.12C155.416 17.12 155.089 17.1133 154.703 17.1C154.316 17.0867 153.909 17.0667 153.483 17.04C153.069 17.0133 152.689 16.9867 152.343 16.96C152.009 16.92 151.749 16.88 151.563 16.84V15.88H155.943C156.383 15.88 156.763 15.8467 157.083 15.78C157.403 15.7133 157.649 15.5667 157.823 15.34C158.009 15.1133 158.103 14.7733 158.103 14.32V13.84C158.103 13.3733 157.949 13.0133 157.643 12.76C157.336 12.4933 156.843 12.36 156.163 12.36H154.663C154.036 12.36 153.476 12.28 152.983 12.12C152.503 11.96 152.129 11.6867 151.863 11.3C151.596 10.9133 151.463 10.38 151.463 9.7V9.14C151.463 8.47333 151.589 7.92667 151.843 7.5C152.109 7.07333 152.516 6.75333 153.063 6.54C153.623 6.32667 154.343 6.22 155.223 6.22C155.596 6.22 156.023 6.23333 156.503 6.26C156.996 6.28667 157.476 6.32667 157.943 6.38C158.409 6.42 158.789 6.46667 159.083 6.52V7.48H154.963C154.283 7.48 153.756 7.59333 153.383 7.82C153.023 8.04667 152.843 8.48667 152.843 9.14V9.58C152.843 9.99333 152.929 10.3067 153.103 10.52C153.276 10.72 153.516 10.8533 153.823 10.92C154.143 10.9867 154.509 11.02 154.923 11.02H156.443C157.416 11.02 158.169 11.2467 158.703 11.7C159.236 12.1533 159.503 12.8067 159.503 13.66V14.4C159.503 15.12 159.336 15.68 159.003 16.08C158.683 16.4667 158.236 16.74 157.663 16.9C157.103 17.0467 156.443 17.12 155.683 17.12ZM165.683 17.12C164.563 17.12 163.676 16.9533 163.023 16.62C162.383 16.2867 161.923 15.72 161.643 14.92C161.363 14.12 161.223 13.0267 161.223 11.64C161.223 10.2267 161.363 9.12667 161.643 8.34C161.936 7.54 162.409 6.98 163.063 6.66C163.716 6.34 164.596 6.18 165.703 6.18C166.649 6.18 167.416 6.28667 168.003 6.5C168.603 6.71333 169.043 7.08 169.323 7.6C169.616 8.10667 169.763 8.81333 169.763 9.72C169.763 10.3467 169.636 10.8533 169.383 11.24C169.143 11.6133 168.789 11.8867 168.323 12.06C167.869 12.22 167.329 12.3 166.703 12.3H162.803C162.816 13.1667 162.909 13.8667 163.083 14.4C163.256 14.92 163.569 15.3 164.023 15.54C164.489 15.7667 165.169 15.88 166.063 15.88H169.503V16.84C168.889 16.92 168.289 16.9867 167.703 17.04C167.116 17.0933 166.443 17.12 165.683 17.12ZM162.783 11.26H166.583C167.183 11.26 167.623 11.1533 167.903 10.94C168.196 10.7133 168.343 10.3133 168.343 9.74C168.343 9.12667 168.249 8.65333 168.063 8.32C167.889 7.97333 167.609 7.73333 167.223 7.6C166.849 7.45333 166.343 7.38 165.703 7.38C164.956 7.38 164.369 7.49333 163.943 7.72C163.516 7.93333 163.216 8.32 163.043 8.88C162.869 9.44 162.783 10.2333 162.783 11.26ZM181.694 17.12C180.64 17.12 179.654 17.0933 178.734 17.04C177.827 17 177.034 16.94 176.354 16.86V15.64H181.174C181.747 15.64 182.26 15.58 182.714 15.46C183.167 15.34 183.52 15.12 183.774 14.8C184.04 14.4667 184.174 14 184.174 13.4V12.42C184.174 11.9 184.04 11.4867 183.774 11.18C183.52 10.8733 183.2 10.6533 182.814 10.52C182.427 10.3867 182.027 10.3133 181.614 10.3L177.834 10.16V9L181.554 8.84C182.274 8.81333 182.854 8.66 183.294 8.38C183.747 8.08667 183.974 7.6 183.974 6.92V5.94C183.974 5.20667 183.727 4.64667 183.234 4.26C182.754 3.86 182.027 3.66 181.054 3.66H176.854V2.44C177.467 2.36 178.167 2.29333 178.954 2.24C179.754 2.18667 180.647 2.16 181.634 2.16C182.514 2.17333 183.24 2.32667 183.814 2.62C184.4 2.9 184.834 3.3 185.114 3.82C185.394 4.32667 185.534 4.92667 185.534 5.62V6.88C185.534 7.33333 185.46 7.72667 185.314 8.06C185.18 8.38 185 8.64667 184.774 8.86C184.56 9.07333 184.327 9.24 184.074 9.36C183.834 9.46667 183.614 9.54 183.414 9.58C183.64 9.63333 183.887 9.73333 184.154 9.88C184.42 10.0133 184.674 10.2 184.914 10.44C185.167 10.68 185.374 10.98 185.534 11.34C185.694 11.7 185.774 12.1267 185.774 12.62V13.64C185.774 14.7733 185.414 15.64 184.694 16.24C183.987 16.8267 182.987 17.12 181.694 17.12ZM188.593 18.56C188.46 18.56 188.34 18.5467 188.233 18.52C188.14 18.5067 188.093 18.5 188.093 18.5V18C188.24 18 188.346 17.9733 188.413 17.92C188.48 17.88 188.513 17.7933 188.513 17.66V16.9H188.353C188.273 16.9 188.2 16.8733 188.133 16.82C188.066 16.7667 188.033 16.6867 188.033 16.58V15.14C188.033 14.9 188.14 14.78 188.353 14.78H189.213C189.346 14.78 189.433 14.8133 189.473 14.88C189.513 14.9467 189.533 15.0333 189.533 15.14V17.58C189.533 17.8467 189.48 18.0533 189.373 18.2C189.28 18.3467 189.16 18.44 189.013 18.48C188.88 18.5333 188.74 18.56 188.593 18.56ZM199.887 17C199.314 17 198.801 16.9133 198.347 16.74C197.907 16.5533 197.561 16.2467 197.307 15.82C197.054 15.38 196.927 14.7867 196.927 14.04V2.28H198.527V13.82C198.527 14.3 198.607 14.6667 198.767 14.92C198.927 15.16 199.141 15.3267 199.407 15.42C199.674 15.5 199.947 15.54 200.227 15.54H205.507V17H199.887ZM209.232 17.12C208.445 17.12 207.799 16.8867 207.292 16.42C206.785 15.9533 206.532 15.2933 206.532 14.44V13.68C206.532 12.84 206.805 12.16 207.352 11.64C207.912 11.12 208.752 10.86 209.872 10.86H213.492V9.54C213.492 9.1 213.412 8.72667 213.252 8.42C213.105 8.1 212.832 7.85333 212.432 7.68C212.045 7.50667 211.479 7.42 210.732 7.42H207.412V6.48C207.879 6.4 208.419 6.32667 209.032 6.26C209.659 6.19333 210.392 6.16 211.232 6.16C212.099 6.14667 212.819 6.25333 213.392 6.48C213.965 6.70667 214.385 7.06667 214.652 7.56C214.932 8.04 215.072 8.67333 215.072 9.46V17H213.852L213.552 15.78C213.499 15.8333 213.332 15.9267 213.052 16.06C212.785 16.1933 212.439 16.3467 212.012 16.52C211.599 16.68 211.145 16.82 210.652 16.94C210.172 17.06 209.699 17.12 209.232 17.12ZM209.892 15.94C210.132 15.9533 210.405 15.9267 210.712 15.86C211.019 15.7933 211.332 15.72 211.652 15.64C211.972 15.5467 212.265 15.4533 212.532 15.36C212.812 15.2667 213.039 15.1867 213.212 15.12C213.385 15.0533 213.479 15.02 213.492 15.02V11.66L210.232 11.8C209.472 11.8267 208.925 12.0133 208.592 12.36C208.272 12.7067 208.112 13.1533 208.112 13.7V14.18C208.112 14.6067 208.199 14.9533 208.372 15.22C208.559 15.4733 208.785 15.6533 209.052 15.76C209.332 15.8667 209.612 15.9267 209.892 15.94ZM217.65 17V1.74H219.23V7.5C219.724 7.14 220.31 6.82667 220.99 6.56C221.684 6.28 222.404 6.14 223.15 6.14C223.897 6.14 224.51 6.3 224.99 6.62C225.484 6.94 225.844 7.37333 226.07 7.92C226.31 8.46667 226.43 9.07333 226.43 9.74V17H224.85V9.9C224.85 9.44667 224.757 9.04667 224.57 8.7C224.397 8.35333 224.144 8.08 223.81 7.88C223.477 7.68 223.077 7.58 222.61 7.58C222.17 7.58 221.764 7.62667 221.39 7.72C221.017 7.8 220.657 7.92 220.31 8.08C219.964 8.22667 219.604 8.40667 219.23 8.62V17H217.65ZM233.248 17.12C232.475 17.12 231.795 17.04 231.208 16.88C230.635 16.72 230.155 16.44 229.768 16.04C229.382 15.64 229.095 15.0867 228.908 14.38C228.722 13.66 228.628 12.7467 228.628 11.64C228.628 10.52 228.722 9.60667 228.908 8.9C229.095 8.18 229.382 7.62667 229.768 7.24C230.155 6.84 230.635 6.56667 231.208 6.42C231.795 6.26 232.475 6.18 233.248 6.18C234.022 6.18 234.695 6.26 235.268 6.42C235.855 6.58 236.342 6.86 236.728 7.26C237.115 7.64667 237.402 8.2 237.588 8.92C237.788 9.62667 237.888 10.5333 237.888 11.64C237.888 12.76 237.788 13.68 237.588 14.4C237.402 15.1067 237.115 15.66 236.728 16.06C236.355 16.4467 235.875 16.72 235.288 16.88C234.702 17.04 234.022 17.12 233.248 17.12ZM233.248 15.82C233.742 15.82 234.175 15.7733 234.548 15.68C234.935 15.5867 235.255 15.4 235.508 15.12C235.762 14.84 235.955 14.42 236.088 13.86C236.222 13.3 236.288 12.56 236.288 11.64C236.288 10.7067 236.222 9.96667 236.088 9.42C235.955 8.87333 235.762 8.46 235.508 8.18C235.255 7.9 234.935 7.71333 234.548 7.62C234.175 7.52667 233.742 7.48 233.248 7.48C232.742 7.48 232.302 7.52667 231.928 7.62C231.555 7.71333 231.242 7.9 230.988 8.18C230.735 8.46 230.542 8.87333 230.408 9.42C230.275 9.96667 230.208 10.7067 230.208 11.64C230.208 12.56 230.275 13.3 230.408 13.86C230.542 14.42 230.735 14.84 230.988 15.12C231.242 15.4 231.555 15.5867 231.928 15.68C232.302 15.7733 232.742 15.82 233.248 15.82ZM240.151 17V6.32H241.351L241.731 8.18C242.211 7.60667 242.745 7.13333 243.331 6.76C243.931 6.38667 244.618 6.2 245.391 6.2C245.578 6.2 245.751 6.20667 245.911 6.22C246.085 6.23333 246.245 6.26 246.391 6.3V7.92C246.218 7.89333 246.031 7.87333 245.831 7.86C245.631 7.83333 245.431 7.82 245.231 7.82C244.738 7.82 244.298 7.88 243.911 8C243.525 8.12 243.158 8.3 242.811 8.54C242.465 8.78 242.105 9.07333 241.731 9.42V17H240.151ZM252.073 17.12C250.953 17.12 250.067 16.9533 249.413 16.62C248.773 16.2867 248.313 15.72 248.033 14.92C247.753 14.12 247.613 13.0267 247.613 11.64C247.613 10.2267 247.753 9.12667 248.033 8.34C248.327 7.54 248.8 6.98 249.453 6.66C250.107 6.34 250.987 6.18 252.093 6.18C253.04 6.18 253.807 6.28667 254.393 6.5C254.993 6.71333 255.433 7.08 255.713 7.6C256.007 8.10667 256.153 8.81333 256.153 9.72C256.153 10.3467 256.027 10.8533 255.773 11.24C255.533 11.6133 255.18 11.8867 254.713 12.06C254.26 12.22 253.72 12.3 253.093 12.3H249.193C249.207 13.1667 249.3 13.8667 249.473 14.4C249.647 14.92 249.96 15.3 250.413 15.54C250.88 15.7667 251.56 15.88 252.453 15.88H255.893V16.84C255.28 16.92 254.68 16.9867 254.093 17.04C253.507 17.0933 252.833 17.12 252.073 17.12ZM249.173 11.26H252.973C253.573 11.26 254.013 11.1533 254.293 10.94C254.587 10.7133 254.733 10.3133 254.733 9.74C254.733 9.12667 254.64 8.65333 254.453 8.32C254.28 7.97333 254 7.73333 253.613 7.6C253.24 7.45333 252.733 7.38 252.093 7.38C251.347 7.38 250.76 7.49333 250.333 7.72C249.907 7.93333 249.607 8.32 249.433 8.88C249.26 9.44 249.173 10.2333 249.173 11.26ZM263.424 17V2.28H269.284C269.711 2.28 270.144 2.34 270.584 2.46C271.038 2.56667 271.458 2.78667 271.844 3.12C272.231 3.44 272.538 3.91333 272.764 4.54C273.004 5.15333 273.124 5.96667 273.124 6.98C273.124 8.02 272.998 8.86 272.744 9.5C272.504 10.1267 272.184 10.6133 271.784 10.96C271.398 11.2933 270.978 11.52 270.524 11.64C270.071 11.76 269.631 11.82 269.204 11.82C269.004 11.82 268.711 11.8133 268.324 11.8C267.938 11.7867 267.524 11.7733 267.084 11.76C266.658 11.7333 266.258 11.7067 265.884 11.68C265.511 11.6533 265.224 11.6333 265.024 11.62V17H263.424ZM265.024 10.4H269.004C269.471 10.4 269.898 10.3 270.284 10.1C270.671 9.9 270.971 9.55333 271.184 9.06C271.411 8.56667 271.524 7.88 271.524 7C271.524 6.13333 271.411 5.46667 271.184 5C270.971 4.52 270.684 4.18667 270.324 4C269.964 3.81333 269.571 3.72 269.144 3.72H265.024V10.4ZM277.155 17.12C276.368 17.12 275.721 16.8867 275.215 16.42C274.708 15.9533 274.455 15.2933 274.455 14.44V13.68C274.455 12.84 274.728 12.16 275.275 11.64C275.835 11.12 276.675 10.86 277.795 10.86H281.415V9.54C281.415 9.1 281.335 8.72667 281.175 8.42C281.028 8.1 280.755 7.85333 280.355 7.68C279.968 7.50667 279.401 7.42 278.655 7.42H275.335V6.48C275.801 6.4 276.341 6.32667 276.955 6.26C277.581 6.19333 278.315 6.16 279.155 6.16C280.021 6.14667 280.741 6.25333 281.315 6.48C281.888 6.70667 282.308 7.06667 282.575 7.56C282.855 8.04 282.995 8.67333 282.995 9.46V17H281.775L281.475 15.78C281.421 15.8333 281.255 15.9267 280.975 16.06C280.708 16.1933 280.361 16.3467 279.935 16.52C279.521 16.68 279.068 16.82 278.575 16.94C278.095 17.06 277.621 17.12 277.155 17.12ZM277.815 15.94C278.055 15.9533 278.328 15.9267 278.635 15.86C278.941 15.7933 279.255 15.72 279.575 15.64C279.895 15.5467 280.188 15.4533 280.455 15.36C280.735 15.2667 280.961 15.1867 281.135 15.12C281.308 15.0533 281.401 15.02 281.415 15.02V11.66L278.155 11.8C277.395 11.8267 276.848 12.0133 276.515 12.36C276.195 12.7067 276.035 13.1533 276.035 13.7V14.18C276.035 14.6067 276.121 14.9533 276.295 15.22C276.481 15.4733 276.708 15.6533 276.975 15.76C277.255 15.8667 277.535 15.9267 277.815 15.94ZM285.573 17V1.74H287.153V10.58H288.673L291.933 6.32H293.613L289.853 11.3L293.853 17H292.173L288.613 12H287.153V17H285.573ZM295.53 4.42C295.317 4.42 295.21 4.31333 295.21 4.1V2.54C295.21 2.32667 295.317 2.22 295.53 2.22H296.65C296.757 2.22 296.83 2.25333 296.87 2.32C296.924 2.37333 296.95 2.44667 296.95 2.54V4.1C296.95 4.31333 296.85 4.42 296.65 4.42H295.53ZM295.29 17V6.32H296.87V17H295.29ZM303.199 17.12C302.933 17.12 302.606 17.1133 302.219 17.1C301.833 17.0867 301.426 17.0667 300.999 17.04C300.586 17.0133 300.206 16.9867 299.859 16.96C299.526 16.92 299.266 16.88 299.079 16.84V15.88H303.459C303.899 15.88 304.279 15.8467 304.599 15.78C304.919 15.7133 305.166 15.5667 305.339 15.34C305.526 15.1133 305.619 14.7733 305.619 14.32V13.84C305.619 13.3733 305.466 13.0133 305.159 12.76C304.853 12.4933 304.359 12.36 303.679 12.36H302.179C301.553 12.36 300.993 12.28 300.499 12.12C300.019 11.96 299.646 11.6867 299.379 11.3C299.113 10.9133 298.979 10.38 298.979 9.7V9.14C298.979 8.47333 299.106 7.92667 299.359 7.5C299.626 7.07333 300.033 6.75333 300.579 6.54C301.139 6.32667 301.859 6.22 302.739 6.22C303.113 6.22 303.539 6.23333 304.019 6.26C304.513 6.28667 304.993 6.32667 305.459 6.38C305.926 6.42 306.306 6.46667 306.599 6.52V7.48H302.479C301.799 7.48 301.273 7.59333 300.899 7.82C300.539 8.04667 300.359 8.48667 300.359 9.14V9.58C300.359 9.99333 300.446 10.3067 300.619 10.52C300.793 10.72 301.033 10.8533 301.339 10.92C301.659 10.9867 302.026 11.02 302.439 11.02H303.959C304.933 11.02 305.686 11.2467 306.219 11.7C306.753 12.1533 307.019 12.8067 307.019 13.66V14.4C307.019 15.12 306.853 15.68 306.519 16.08C306.199 16.4667 305.753 16.74 305.179 16.9C304.619 17.0467 303.959 17.12 303.199 17.12ZM312.659 17C311.966 17 311.393 16.8867 310.939 16.66C310.486 16.4333 310.153 16.0667 309.939 15.56C309.726 15.0533 309.626 14.38 309.639 13.54L309.699 7.62H307.999V6.6L309.719 6.32L309.979 3.34H311.199V6.32H314.279V7.62H311.199V13.54C311.199 14.0067 311.246 14.38 311.339 14.66C311.446 14.94 311.579 15.1533 311.739 15.3C311.913 15.4467 312.093 15.5533 312.279 15.62C312.466 15.6733 312.646 15.7067 312.819 15.72L314.119 15.84V17H312.659ZM318.143 17.12C317.356 17.12 316.71 16.8867 316.203 16.42C315.696 15.9533 315.443 15.2933 315.443 14.44V13.68C315.443 12.84 315.716 12.16 316.263 11.64C316.823 11.12 317.663 10.86 318.783 10.86H322.403V9.54C322.403 9.1 322.323 8.72667 322.163 8.42C322.016 8.1 321.743 7.85333 321.343 7.68C320.956 7.50667 320.39 7.42 319.643 7.42H316.323V6.48C316.79 6.4 317.33 6.32667 317.943 6.26C318.57 6.19333 319.303 6.16 320.143 6.16C321.01 6.14667 321.73 6.25333 322.303 6.48C322.876 6.70667 323.296 7.06667 323.563 7.56C323.843 8.04 323.983 8.67333 323.983 9.46V17H322.763L322.463 15.78C322.41 15.8333 322.243 15.9267 321.963 16.06C321.696 16.1933 321.35 16.3467 320.923 16.52C320.51 16.68 320.056 16.82 319.563 16.94C319.083 17.06 318.61 17.12 318.143 17.12ZM318.803 15.94C319.043 15.9533 319.316 15.9267 319.623 15.86C319.93 15.7933 320.243 15.72 320.563 15.64C320.883 15.5467 321.176 15.4533 321.443 15.36C321.723 15.2667 321.95 15.1867 322.123 15.12C322.296 15.0533 322.39 15.02 322.403 15.02V11.66L319.143 11.8C318.383 11.8267 317.836 12.0133 317.503 12.36C317.183 12.7067 317.023 13.1533 317.023 13.7V14.18C317.023 14.6067 317.11 14.9533 317.283 15.22C317.47 15.4733 317.696 15.6533 317.963 15.76C318.243 15.8667 318.523 15.9267 318.803 15.94ZM326.561 17V6.32H327.801L328.141 7.5C328.648 7.14 329.241 6.82667 329.921 6.56C330.601 6.28 331.308 6.14 332.041 6.14C332.828 6.14 333.461 6.30667 333.941 6.64C334.421 6.97333 334.775 7.41333 335.001 7.96C335.228 8.50667 335.341 9.1 335.341 9.74V17H333.761V9.92C333.761 9.46667 333.668 9.06667 333.481 8.72C333.308 8.36 333.055 8.08 332.721 7.88C332.401 7.68 332.001 7.58 331.521 7.58C331.081 7.58 330.668 7.62667 330.281 7.72C329.908 7.8 329.548 7.92 329.201 8.08C328.868 8.22667 328.515 8.40667 328.141 8.62V17H326.561Z" fill="white"/>
</svg>
